<?xml version="1.0" encoding="utf-8"?>
<svg viewBox="-19.504 -32.497 130.202 130.055" xmlns="http://www.w3.org/2000/svg" xmlns:xlink="http://www.w3.org/1999/xlink">
    <defs>
        <radialGradient gradientTransform="matrix(0, -1.98198, 1.8439, 0, -1050.777514, 421.563637)" gradientUnits="userSpaceOnUse" r="65" cy="578.088" cx="158.429" id="c" xlink:href="#a"/>
        <linearGradient id="a">
            <stop stop-color="#fd5" offset="0"/>
            <stop stop-color="#fd5" offset="0.1"/>
            <stop stop-color="#ff543e" offset="0.5"/>
            <stop stop-color="#c837ab" offset="1"/>
        </linearGradient>
        <radialGradient gradientTransform="matrix(0.17394, 0.86872, -3.5818, 0.71718, 1628.972486, -490.933372)" gradientUnits="userSpaceOnUse" r="65" cy="473.455" cx="147.694" id="d" xlink:href="#b"/>
        <linearGradient id="b">
            <stop stop-color="#3771c8" offset="0"/>
            <stop offset="0.128" stop-color="#3771c8"/>
            <stop stop-opacity="0" stop-color="#60f" offset="1"/>
        </linearGradient>
    </defs>
    <path d="M 45.655 -32.44 C 18.513 -32.44 10.575 -32.412 9.032 -32.284 C 3.462 -31.821 -0.004 -30.944 -3.78 -29.064 C -6.69 -27.619 -8.985 -25.944 -11.25 -23.596 C -15.375 -19.314 -17.875 -14.046 -18.78 -7.784 C -19.22 -4.744 -19.348 -4.124 -19.374 11.404 C -19.384 16.58 -19.374 23.392 -19.374 32.529 C -19.374 59.649 -19.344 67.579 -19.214 69.119 C -18.764 74.539 -17.914 77.949 -16.114 81.679 C -12.674 88.819 -6.104 94.179 1.636 96.179 C 4.316 96.869 7.276 97.249 11.076 97.429 C 12.686 97.499 29.096 97.549 45.516 97.549 C 61.936 97.549 78.356 97.529 79.926 97.449 C 84.326 97.242 86.881 96.899 89.706 96.169 C 97.474 94.177 103.968 88.86 107.456 81.639 C 109.221 77.999 110.116 74.459 110.521 69.322 C 110.609 68.202 110.646 50.345 110.646 32.512 C 110.646 14.676 110.606 -3.148 110.518 -4.268 C 110.108 -9.488 109.213 -12.998 107.391 -16.708 C 105.896 -19.745 104.236 -22.013 101.826 -24.332 C 97.526 -28.44 92.266 -30.94 85.997 -31.844 C 82.96 -32.283 82.355 -32.413 66.815 -32.44 L 45.655 -32.44 Z" fill="url(#c)" transform="matrix(1, 0, 0, 1, 0, -7.105427357601002e-15)"/>
    <path d="M 45.655 -32.44 C 18.513 -32.44 10.575 -32.412 9.032 -32.284 C 3.462 -31.821 -0.004 -30.944 -3.78 -29.064 C -6.69 -27.619 -8.985 -25.944 -11.25 -23.596 C -15.375 -19.314 -17.875 -14.046 -18.78 -7.784 C -19.22 -4.744 -19.348 -4.124 -19.374 11.404 C -19.384 16.58 -19.374 23.392 -19.374 32.529 C -19.374 59.649 -19.344 67.579 -19.214 69.119 C -18.764 74.539 -17.914 77.949 -16.114 81.679 C -12.674 88.819 -6.104 94.179 1.636 96.179 C 4.316 96.869 7.276 97.249 11.076 97.429 C 12.686 97.499 29.096 97.549 45.516 97.549 C 61.936 97.549 78.356 97.529 79.926 97.449 C 84.326 97.242 86.881 96.899 89.706 96.169 C 97.474 94.177 103.968 88.86 107.456 81.639 C 109.221 77.999 110.116 74.459 110.521 69.322 C 110.609 68.202 110.646 50.345 110.646 32.512 C 110.646 14.676 110.606 -3.148 110.518 -4.268 C 110.108 -9.488 109.213 -12.998 107.391 -16.708 C 105.896 -19.745 104.236 -22.013 101.826 -24.332 C 97.526 -28.44 92.266 -30.94 85.997 -31.844 C 82.96 -32.283 82.355 -32.413 66.815 -32.44 L 45.655 -32.44 Z" fill="url(#d)" transform="matrix(1, 0, 0, 1, 0, -7.105427357601002e-15)"/>
    <path d="M 45.625 -15.44 C 32.589 -15.44 30.953 -15.383 25.833 -15.15 C 20.723 -14.916 17.235 -14.107 14.183 -12.92 C 11.026 -11.694 8.348 -10.054 5.68 -7.385 C 3.01 -4.717 1.37 -2.039 0.14 1.117 C -1.05 4.17 -1.86 7.659 -2.09 12.767 C -2.318 17.887 -2.378 19.524 -2.378 32.56 C -2.378 45.596 -2.32 47.227 -2.088 52.347 C -1.853 57.457 -1.044 60.945 0.142 63.997 C 1.369 67.154 3.009 69.832 5.678 72.5 C 8.345 75.17 11.023 76.814 14.178 78.04 C 17.232 79.227 20.721 80.036 25.83 80.27 C 30.95 80.503 32.585 80.56 45.62 80.56 C 58.657 80.56 60.288 80.503 65.408 80.27 C 70.518 80.036 74.01 79.227 77.064 78.04 C 80.22 76.814 82.894 75.17 85.561 72.5 C 88.231 69.832 89.871 67.154 91.101 63.998 C 92.281 60.945 93.091 57.456 93.331 52.348 C 93.561 47.228 93.621 45.596 93.621 32.56 C 93.621 19.524 93.561 17.888 93.331 12.768 C 93.091 7.658 92.281 4.17 91.101 1.118 C 89.871 -2.039 88.231 -4.717 85.561 -7.385 C 82.891 -10.055 80.221 -11.695 77.061 -12.92 C 74.001 -14.107 70.511 -14.916 65.401 -15.15 C 60.281 -15.383 58.651 -15.44 45.611 -15.44 L 45.625 -15.44 Z M 41.319 -6.79 C 42.597 -6.792 44.023 -6.79 45.625 -6.79 C 58.441 -6.79 59.96 -6.744 65.021 -6.514 C 69.701 -6.3 72.241 -5.518 73.933 -4.861 C 76.173 -3.991 77.77 -2.951 79.449 -1.271 C 81.129 0.409 82.169 2.009 83.041 4.249 C 83.698 5.939 84.481 8.479 84.694 13.159 C 84.924 18.219 84.974 19.739 84.974 32.549 C 84.974 45.359 84.924 46.879 84.694 51.939 C 84.48 56.619 83.698 59.159 83.041 60.849 C 82.171 63.089 81.129 64.684 79.449 66.363 C 77.769 68.043 76.174 69.083 73.933 69.953 C 72.243 70.613 69.701 71.393 65.021 71.607 C 59.961 71.837 58.441 71.887 45.625 71.887 C 32.808 71.887 31.289 71.837 26.229 71.607 C 21.549 71.391 19.009 70.609 17.316 69.952 C 15.076 69.082 13.476 68.042 11.796 66.362 C 10.116 64.682 9.076 63.086 8.204 60.845 C 7.547 59.155 6.764 56.615 6.551 51.935 C 6.321 46.875 6.275 45.355 6.275 32.537 C 6.275 19.719 6.321 18.207 6.551 13.147 C 6.765 8.467 7.547 5.927 8.204 4.235 C 9.074 1.995 10.116 0.395 11.796 -1.285 C 13.476 -2.965 15.076 -4.005 17.316 -4.877 C 19.008 -5.537 21.549 -6.317 26.229 -6.532 C 30.657 -6.732 32.373 -6.792 41.319 -6.802 L 41.319 -6.79 Z M 71.247 1.18 C 66.812 1.18 64.041 5.98 66.258 9.82 C 68.475 13.66 74.018 13.66 76.235 9.82 C 76.741 8.943 77.007 7.949 77.007 6.938 C 77.007 3.758 74.427 1.178 71.247 1.178 L 71.247 1.18 Z M 45.625 7.91 C 32.012 7.91 20.975 18.947 20.975 32.56 C 20.975 46.173 32.012 57.205 45.625 57.205 C 59.238 57.205 70.272 46.173 70.272 32.56 C 70.272 18.947 59.237 7.91 45.624 7.91 L 45.625 7.91 Z M 45.625 16.56 C 54.461 16.56 61.625 23.723 61.625 32.56 C 61.625 41.396 54.461 48.56 45.625 48.56 C 36.788 48.56 29.625 41.396 29.625 32.56 C 29.625 23.723 36.788 16.56 45.625 16.56 L 45.625 16.56 Z" fill="#fff" transform="matrix(1, 0, 0, 1, 0, -7.105427357601002e-15)"/>
</svg>
